<svg height="512pt" viewBox="-61 0 512 512" width="512pt" xmlns="http://www.w3.org/2000/svg"><path d="m390 61h-35.726562l-30-61h-258.546876l-30 61h-35.726562v60h390zm0 0"/><path d="m195 301c-8.277344 0-15 6.722656-15 15s6.722656 15 15 15 15-6.722656 15-15-6.722656-15-15-15zm0 0"/><path d="m358.796875 151h-327.59375l5 60h317.59375zm0 0"/><path d="m351.296875 241h-312.59375l12.5 150h287.59375zm-156.296875 120c-24.8125 0-45-20.1875-45-45s20.1875-45 45-45 45 20.1875 45 45-20.1875 45-45 45zm0 0"/><path d="m53.703125 421 7.496094 91h267.601562l7.5-91zm0 0"/></svg>